<svg width="100%" height="100%" viewBox="0 0 100 100" fill="none" xmlns="http://www.w3.org/2000/svg">
    <!-- 外枠の円 -->
    <circle cx="50" cy="50" r="48" fill="#4A5568" />
    
    <!-- カッターヘッドのメインデザイン -->
    <g id="cutter-head-main">
        <!-- ガイド円 -->
        <circle cx="50" cy="50" r="40" stroke="#2D3748" stroke-width="1.5" stroke-dasharray="4 2" />
        
        <!-- 中心軸 -->
        <circle cx="50" cy="50" r="10" fill="#CBD5E0" stroke="#2D3748" stroke-width="2" />
        
        <!-- カッタービット（放射状の刃） -->
        <!-- 垂直・水平の刃 -->
        <rect x="48" y="10" width="4" height="20" fill="#ECC94B" rx="1" /> <!-- 上 -->
        <rect x="48" y="70" width="4" height="20" fill="#ECC94B" rx="1" /> <!-- 下 -->
        <rect x="10" y="48" width="20" height="4" fill="#ECC94B" rx="1" /> <!-- 左 -->
        <rect x="70" y="48" width="20" height="4" fill="#ECC94B" rx="1" /> <!-- 右 -->
        
        <!-- 45度回転した刃 -->
        <rect x="48" y="10" width="4" height="20" fill="#ECC94B" rx="1" transform="rotate(45 50 50)" />
        <rect x="48" y="10" width="4" height="20" fill="#ECC94B" rx="1" transform="rotate(135 50 50)" />
        <rect x="48" y="10" width="4" height="20" fill="#ECC94B" rx="1" transform="rotate(225 50 50)" />
        <rect x="48" y="10" width="4" height="20" fill="#ECC94B" rx="1" transform="rotate(315 50 50)" />
        
        <!-- 小さなサブビット -->
        <circle cx="50" cy="25" r="2" fill="#2D3748" transform="rotate(22.5 50 50)" />
        <circle cx="50" cy="25" r="2" fill="#2D3748" transform="rotate(67.5 50 50)" />
        <circle cx="50" cy="25" r="2" fill="#2D3748" transform="rotate(112.5 50 50)" />
        <circle cx="50" cy="25" r="2" fill="#2D3748" transform="rotate(157.5 50 50)" />
        <circle cx="50" cy="25" r="2" fill="#2D3748" transform="rotate(202.5 50 50)" />
        <circle cx="50" cy="25" r="2" fill="#2D3748" transform="rotate(247.5 50 50)" />
        <circle cx="50" cy="25" r="2" fill="#2D3748" transform="rotate(292.5 50 50)" />
        <circle cx="50" cy="25" r="2" fill="#2D3748" transform="rotate(337.5 50 50)" />
    </g>
</svg>